<svg width="319" height="160" viewBox="0 0 319 160" fill="none" xmlns="http://www.w3.org/2000/svg">
<rect width="173" height="48" rx="24" fill="#272727"/>
<g clip-path="url(#clip0_2268_15076)">
<path fill-rule="evenodd" clip-rule="evenodd" d="M38.56 24.25C38.56 23.47 38.49 22.72 38.36 22H28V26.255H33.92C33.665 27.63 32.89 28.7951 31.725 29.575V32.335H35.28C37.36 30.42 38.56 27.6 38.56 24.25Z" fill="#4285F4"/>
<path fill-rule="evenodd" clip-rule="evenodd" d="M27.9999 34.9996C30.9699 34.9996 33.46 34.0146 35.2799 32.3347L31.7249 29.5746C30.7399 30.2346 29.4799 30.6247 27.9999 30.6247C25.1349 30.6247 22.7099 28.6896 21.8449 26.0896H18.1699V28.9396C19.9799 32.5346 23.6999 34.9996 27.9999 34.9996Z" fill="#34A853"/>
<path fill-rule="evenodd" clip-rule="evenodd" d="M21.845 26.0898C21.625 25.4298 21.5 24.7248 21.5 23.9998C21.5 23.2748 21.625 22.5698 21.845 21.9098V19.0598H18.17C17.425 20.5448 17 22.2248 17 23.9998C17 25.7749 17.425 27.4548 18.17 28.9398L21.845 26.0898Z" fill="#FBBC05"/>
<path fill-rule="evenodd" clip-rule="evenodd" d="M27.9999 17.375C29.615 17.375 31.0649 17.93 32.205 19.02L35.3599 15.865C33.4549 14.09 30.9649 13 27.9999 13C23.6999 13 19.9799 15.465 18.1699 19.06L21.8449 21.91C22.7099 19.31 25.1349 17.375 27.9999 17.375Z" fill="#EA4335"/>
</g>
<path d="M48.198 29.5L51.762 18.52H54.264L57.882 29.5H56.19L55.308 26.746H50.718L49.872 29.5H48.198ZM51.168 25.288H54.858L53.202 20.05H52.806L51.168 25.288ZM58.9492 29.5V28.078H61.2892V19.942H58.9492V18.52H65.1772V19.942H62.8372V28.078H65.1772V29.5H58.9492ZM76.8217 29.734C73.4377 29.752 71.9797 27.664 71.9797 23.974C71.9797 20.356 73.5277 18.34 76.8217 18.34C80.2057 18.322 81.6637 20.41 81.6637 24.1C81.6637 27.718 80.1157 29.734 76.8217 29.734ZM76.8217 28.222C79.4497 28.222 80.0257 26.188 80.0257 23.938C80.0257 21.202 79.0177 19.87 76.8217 19.852C74.1937 19.852 73.6177 21.868 73.6177 24.118C73.6177 26.854 74.6257 28.204 76.8217 28.222ZM85.542 29.5L82.968 20.914H84.642L86.712 28.258H86.82L88.8 20.914H90.492L87.936 29.5H85.542ZM95.235 29.734C92.589 29.734 91.527 27.988 91.527 25.198C91.527 22.516 92.751 20.788 95.235 20.788C97.809 20.788 98.835 22.498 98.835 24.586C98.835 25.018 98.781 25.522 98.709 25.81H93.129C93.183 27.448 93.831 28.348 95.235 28.348C96.009 28.348 96.891 28.222 97.179 27.304H98.637C98.385 29.176 97.017 29.734 95.235 29.734ZM93.147 24.514H97.323C97.323 22.858 96.621 22.138 95.235 22.138C94.011 22.138 93.201 22.912 93.147 24.514ZM100.905 29.5V20.914H102.237V22.462H102.327C102.705 21.346 103.515 20.788 104.685 20.788C105.909 20.788 106.845 21.328 106.845 23.362V24.118H105.405V23.326C105.405 22.39 104.973 22.138 104.415 22.138C103.353 22.138 102.471 23.038 102.471 26.026V29.5H100.905ZM110.222 29.5L107.648 20.914H109.322L111.392 28.258H111.5L113.48 20.914H115.172L112.616 29.5H110.222ZM116.725 19.618V17.962H118.633V19.618H116.725ZM116.869 29.5V20.914H118.435V29.5H116.869ZM124.256 29.734C121.61 29.734 120.548 27.988 120.548 25.198C120.548 22.516 121.772 20.788 124.256 20.788C126.83 20.788 127.856 22.498 127.856 24.586C127.856 25.018 127.802 25.522 127.73 25.81H122.15C122.204 27.448 122.852 28.348 124.256 28.348C125.03 28.348 125.912 28.222 126.2 27.304H127.658C127.406 29.176 126.038 29.734 124.256 29.734ZM122.168 24.514H126.344C126.344 22.858 125.642 22.138 124.256 22.138C123.032 22.138 122.222 22.912 122.168 24.514ZM131.15 29.5L129.188 20.914H130.88L132.302 28.204H132.356L133.976 20.914H136.046L137.576 28.204H137.63L139.142 20.914H140.744L138.746 29.5H136.496L135.002 22.264H134.948L133.4 29.5H131.15ZM144.893 29.734C143.165 29.734 141.869 29.14 141.869 27.322H143.309C143.345 28.114 143.957 28.384 144.965 28.384C146.351 28.384 147.017 28.132 147.017 27.124C147.017 26.314 146.513 26.026 145.379 25.936L144.281 25.846C142.931 25.738 141.905 25.198 141.905 23.29C141.905 22.246 142.301 20.788 145.073 20.788C146.621 20.788 148.205 21.364 148.205 23.182H146.765C146.765 22.372 145.847 22.138 145.001 22.138C144.227 22.138 143.363 22.246 143.363 23.29C143.363 23.974 143.561 24.37 144.623 24.46L146.027 24.586C147.683 24.73 148.475 25.558 148.475 26.944C148.475 28.996 147.305 29.734 144.893 29.734Z" fill="white"/>
<rect x="181" width="138" height="48" rx="24" fill="#272727"/>
<mask id="mask0_2268_15076" style="mask-type:alpha" maskUnits="userSpaceOnUse" x="198" y="13" width="22" height="22">
<path d="M209 13C211.965 13 214.454 14.0903 216.359 15.8652L213.205 19.0195C212.065 17.9297 210.615 17.375 209 17.375C206.135 17.375 203.71 19.3102 202.845 21.9102L202.767 22.1592C202.595 22.7462 202.5 23.3656 202.5 24C202.5 24.7249 202.625 25.4299 202.845 26.0898L202.931 26.3311C203.862 28.8085 206.224 30.625 209 30.625C210.48 30.625 211.74 30.2342 212.725 29.5742C213.89 28.7943 214.665 27.6298 214.92 26.2549H209V22H219.36C219.49 22.72 219.56 23.47 219.56 24.25C219.56 27.5999 218.36 30.42 216.28 32.335L215.931 32.6416C214.147 34.1339 211.784 35 209 35C204.834 35 201.213 32.6865 199.345 29.2734L199.17 28.9395C198.425 27.4546 198 25.7749 198 24C198 22.225 198.425 20.5446 199.17 19.0596C200.98 15.4648 204.7 13 209 13Z" fill="#EA4335"/>
</mask>
<g mask="url(#mask0_2268_15076)">
<path fill-rule="evenodd" clip-rule="evenodd" d="M219.56 24.25C219.56 23.47 219.49 22.72 219.36 22H209V26.255H214.92C214.665 27.63 213.89 28.7951 212.725 29.575V32.335H216.28C218.36 30.42 219.56 27.6 219.56 24.25Z" fill="url(#paint0_linear_2268_15076)"/>
<path fill-rule="evenodd" clip-rule="evenodd" d="M209 34.9996C211.97 34.9996 214.46 34.0146 216.28 32.3347L212.725 29.5746C211.74 30.2346 210.48 30.6247 209 30.6247C206.135 30.6247 203.71 28.6896 202.845 26.0896H199.17V28.9396C200.98 32.5346 204.7 34.9996 209 34.9996Z" fill="url(#paint1_linear_2268_15076)"/>
<path fill-rule="evenodd" clip-rule="evenodd" d="M205.5 30.5C205.28 29.84 202.5 24.7248 202.5 23.9998C202.5 23.2748 202.625 22.5698 202.845 21.9098V19.0598H199.17C198.425 20.5448 198 22.2248 198 23.9998C198 25.7749 198.425 30.4548 199.17 31.9398L205.5 30.5Z" fill="url(#paint2_linear_2268_15076)"/>
<path fill-rule="evenodd" clip-rule="evenodd" d="M209 17.375C210.615 17.375 212.065 17.93 213.205 19.02L216.36 15.865C214.455 14.09 211.965 13 209 13C204.7 13 200.98 15.465 199.17 19.06L202.845 21.91C203.71 19.31 206.135 17.375 209 17.375Z" fill="url(#paint3_linear_2268_15076)"/>
</g>
<path d="M229.198 29.5L232.762 18.52H235.264L238.882 29.5H237.19L236.308 26.746H231.718L230.872 29.5H229.198ZM232.168 25.288H235.858L234.202 20.05H233.806L232.168 25.288ZM239.949 29.5V28.078H242.289V19.942H239.949V18.52H246.177V19.942H243.837V28.078H246.177V29.5H239.949ZM253.592 29.5V18.52H256.094L259.442 27.646H259.514L262.862 18.52H265.364V29.5H263.87V20.212H263.726L260.198 29.5H258.704L255.23 20.212H255.086V29.5H253.592ZM271.35 29.734C268.884 29.734 267.588 28.222 267.588 25.27C267.588 22.3 268.866 20.788 271.35 20.788C273.834 20.788 275.112 22.3 275.112 25.27C275.112 28.222 273.816 29.734 271.35 29.734ZM271.35 28.384C272.898 28.384 273.492 27.304 273.51 25.288C273.492 23.236 272.916 22.138 271.35 22.138C269.784 22.138 269.208 23.236 269.19 25.288C269.208 27.304 269.802 28.384 271.35 28.384ZM280.198 29.734C277.912 29.734 276.76 27.988 276.76 25.252C276.76 22.732 277.786 20.788 280.288 20.788C281.17 20.788 282.034 21.058 282.61 21.796V18.34H284.176V29.5H282.844V28.366H282.754C282.196 29.284 281.332 29.734 280.198 29.734ZM280.396 28.33C281.44 28.294 282.268 27.88 282.61 26.35V23.632C282.106 22.462 281.206 22.138 280.288 22.138C278.758 22.138 278.362 23.776 278.362 25.288C278.362 27.232 278.83 28.312 280.396 28.33ZM290.069 29.734C287.423 29.734 286.361 27.988 286.361 25.198C286.361 22.516 287.585 20.788 290.069 20.788C292.643 20.788 293.669 22.498 293.669 24.586C293.669 25.018 293.615 25.522 293.543 25.81H287.963C288.017 27.448 288.665 28.348 290.069 28.348C290.843 28.348 291.725 28.222 292.013 27.304H293.471C293.219 29.176 291.851 29.734 290.069 29.734ZM287.981 24.514H292.157C292.157 22.858 291.455 22.138 290.069 22.138C288.845 22.138 288.035 22.912 287.981 24.514Z" fill="white"/>
<rect y="56" width="138" height="48" rx="24" fill="#272727"/>
<path d="M27.2544 69.6003C25.0626 69.6003 23.1857 70.9733 22.4294 72.9019C20.8472 73.1132 19.4335 74.0361 18.62 75.4457C17.5244 77.3435 17.774 79.6546 19.0653 81.2738C18.4578 82.7492 18.5494 84.4353 19.3622 85.8441C20.4583 87.7427 22.5869 88.682 24.6356 88.3722C25.6097 89.6365 27.1149 90.4003 28.7419 90.4003C30.9336 90.4003 32.8106 89.0273 33.5669 87.0988C35.1491 86.8874 36.5628 85.9646 37.3763 84.555C38.4719 82.6572 38.2222 80.3461 36.9309 78.7269C37.5385 77.2515 37.4468 75.5654 36.6341 74.1566C35.538 72.2579 33.4094 71.3186 31.3606 71.6285C30.3866 70.3642 28.8814 69.6003 27.2544 69.6003ZM27.2544 71.2003C28.1793 71.2003 29.0466 71.5641 29.7028 72.1816C29.6527 72.2084 29.6008 72.2295 29.5513 72.2582L25.9997 74.3097C25.6301 74.5225 25.4013 74.9169 25.3997 75.3441L25.3778 80.1175L23.67 79.1207V74.7847C23.67 72.8087 25.2784 71.2003 27.2544 71.2003ZM32.3919 73.1738C33.5401 73.2555 34.6306 73.8871 35.2481 74.9566C35.7105 75.7573 35.8297 76.6906 35.6231 77.5675C35.5743 77.5371 35.5296 77.5027 35.4794 77.4738L31.9263 75.4222C31.5567 75.2094 31.1013 75.2087 30.7309 75.4207L26.5872 77.7894L26.5966 75.8128L30.3513 73.6441C30.993 73.2736 31.703 73.1248 32.3919 73.1738ZM22.0778 74.6144C22.076 74.6713 22.07 74.7273 22.07 74.7847V78.8863C22.07 79.3135 22.2965 79.7086 22.6653 79.9238L26.7888 82.3285L25.0731 83.3082L21.3169 81.141C19.6057 80.153 19.0179 77.9553 20.0059 76.2441C20.4681 75.4438 21.2157 74.8742 22.0778 74.6144ZM30.9231 76.6925L34.6794 78.8597C36.3906 79.8477 36.9783 82.0454 35.9903 83.7566C35.5282 84.5568 34.7805 85.1265 33.9184 85.3863C33.9203 85.3293 33.9263 85.2733 33.9263 85.216V81.1144C33.9263 80.6872 33.6997 80.2921 33.3309 80.0769L29.2075 77.6722L30.9231 76.6925ZM28.0059 78.3582L29.4231 79.1847L29.4153 80.8285L27.9903 81.6425L26.5731 80.8144L26.5809 79.1722L28.0059 78.3582ZM30.6184 79.8832L32.3263 80.88V85.216C32.3263 87.192 30.7179 88.8003 28.7419 88.8003C27.817 88.8003 26.9496 88.4366 26.2934 87.8191C26.3435 87.7923 26.3954 87.7711 26.445 87.7425L29.9966 85.691C30.3662 85.4782 30.595 85.0838 30.5966 84.6566L30.6184 79.8832ZM29.4091 82.2113L29.3997 84.1878L25.645 86.3566C23.9338 87.3446 21.7361 86.7553 20.7481 85.0441C20.2857 84.2434 20.1666 83.3101 20.3731 82.4332C20.422 82.4635 20.4667 82.4979 20.5169 82.5269L24.07 84.5785C24.4396 84.7913 24.8949 84.792 25.2653 84.58L29.4091 82.2113Z" fill="#6DB4A1"/>
<path d="M53.67 85.734C50.268 85.734 48.756 83.754 48.756 79.974C48.756 76.302 50.43 74.34 53.58 74.34C56.01 74.34 57.54 75.6 57.756 77.868H56.172C55.938 76.428 54.912 75.852 53.634 75.852C50.916 75.852 50.412 77.796 50.412 80.046C50.412 82.854 51.42 84.222 53.652 84.222C55.146 84.222 56.046 83.466 56.244 82.008H57.828C57.54 84.492 56.082 85.734 53.67 85.734ZM59.5436 85.5V74.34H61.1096V78.21H61.1996C61.7576 77.202 62.6576 76.788 63.8096 76.788C65.2676 76.788 66.6356 77.418 66.6356 79.632V85.5H65.0696V80.082C65.0696 78.354 64.3676 78.138 63.5216 78.138C62.0996 78.138 61.1096 79.488 61.1096 81.738V85.5H59.5436ZM71.4641 85.734C69.9341 85.734 68.6201 84.888 68.6201 82.998C68.6201 81.036 70.0601 80.28 72.2381 80.28C72.8501 80.28 73.6421 80.352 74.0741 80.442V79.992C74.0741 78.714 73.7501 78.138 72.1841 78.138C71.4821 78.138 70.5821 78.3 70.4561 79.326H68.8901C68.9621 77.814 70.0601 76.788 72.0941 76.788C74.1101 76.788 75.6401 77.346 75.6401 79.74V85.5H74.3081V84.348H74.2181C73.3901 85.464 72.5261 85.734 71.4641 85.734ZM71.7341 84.33C72.4361 84.33 74.0921 83.988 74.0741 82.026V81.684C73.7861 81.648 73.1381 81.558 72.3281 81.558C71.1581 81.558 70.2221 81.702 70.2221 82.944C70.2221 83.952 70.9421 84.33 71.7341 84.33ZM80.7341 85.734C78.5201 85.734 78.0701 84.6 78.0701 82.35V75.258H79.6361V76.914H82.9301V78.246H79.6361V82.242C79.6361 83.826 79.8701 84.33 80.7701 84.33C81.4541 84.33 81.8141 83.97 81.8861 83.034H83.2901C83.2001 84.636 82.5521 85.734 80.7341 85.734ZM89.3205 85.734C85.8645 85.734 84.3705 83.754 84.3705 79.974C84.3705 76.302 86.0265 74.34 89.2305 74.34C91.7145 74.34 93.2085 75.6 93.4245 77.868H91.8405C91.6065 76.428 90.5985 75.852 89.2845 75.852C86.5125 75.852 86.0265 77.796 86.0265 80.046C86.0265 82.854 87.0345 84.276 89.3025 84.276C91.1025 84.276 91.9305 83.322 92.0025 81.378H89.0145V80.064H93.5145V80.604C93.5145 83.394 92.7045 85.734 89.3205 85.734ZM95.8463 85.5V74.52H99.6083C102.722 74.52 103.91 75.456 103.91 78.066C103.91 80.766 102.56 81.666 99.5183 81.666H97.3943V85.5H95.8463ZM97.3943 80.172H99.5183C101.66 80.172 102.272 79.74 102.272 78.102C102.272 76.482 101.642 75.978 99.8063 75.978H97.3943V80.172ZM108.135 85.5V75.978H104.625V74.52H113.193V75.978H109.683V85.5H108.135Z" fill="white"/>
<rect x="146" y="56" width="149" height="48" rx="24" fill="#272727"/>
<path d="M180.534 70.7208L175.682 74.9734H180.534V70.7208ZM174.629 74.2739L181.731 68.0481V74.9734H184V85.435H181.275V92L174.629 85.6787V91.8023H173.432V85.6816L166.634 91.973V85.435H164V74.9734H166.725V68L173.432 74.1973V68.1313H174.629V74.2739ZM172.574 76.2157C170.114 76.2171 167.656 76.2157 165.198 76.2157V84.1943H166.634V82.216L172.575 76.2164L172.574 76.2157ZM175.491 76.2157L181.275 82.2204V84.1935H182.803V76.2149C180.367 76.2149 177.929 76.2164 175.491 76.2149V76.2157ZM172.474 74.9742L167.924 70.769V74.9742H172.474ZM173.432 84.0243V77.0801L167.833 82.7347V89.207L173.432 84.0243ZM174.646 77.0932V84.0126L180.077 89.1793C180.077 87.0289 180.076 84.8799 180.076 82.7296L174.646 77.0932Z" fill="#2BA2B3"/>
<path d="M195.44 85.5V74.52H199.202C202.316 74.52 203.504 75.456 203.504 78.066C203.504 80.766 202.154 81.666 199.112 81.666H196.988V85.5H195.44ZM196.988 80.172H199.112C201.254 80.172 201.866 79.74 201.866 78.102C201.866 76.482 201.236 75.978 199.4 75.978H196.988V80.172ZM208.364 85.734C205.718 85.734 204.656 83.988 204.656 81.198C204.656 78.516 205.88 76.788 208.364 76.788C210.938 76.788 211.964 78.498 211.964 80.586C211.964 81.018 211.91 81.522 211.838 81.81H206.258C206.312 83.448 206.96 84.348 208.364 84.348C209.138 84.348 210.02 84.222 210.308 83.304H211.766C211.514 85.176 210.146 85.734 208.364 85.734ZM206.276 80.514H210.452C210.452 78.858 209.75 78.138 208.364 78.138C207.14 78.138 206.33 78.912 206.276 80.514ZM214.034 85.5V76.914H215.366V78.462H215.456C215.834 77.346 216.644 76.788 217.814 76.788C219.038 76.788 219.974 77.328 219.974 79.362V80.118H218.534V79.326C218.534 78.39 218.102 78.138 217.544 78.138C216.482 78.138 215.6 79.038 215.6 82.026V85.5H214.034ZM221.522 88.182V76.914H222.836V78.048H222.926C223.592 77.022 224.582 76.788 225.626 76.788C227.93 76.788 228.974 78.57 228.974 81.018C228.974 83.754 227.822 85.734 225.554 85.734C224.762 85.734 223.844 85.626 223.088 84.51V88.182H221.522ZM225.356 84.33C226.922 84.312 227.372 83.034 227.372 81.054C227.372 79.542 226.976 78.138 225.446 78.138C224.528 78.138 223.592 78.462 223.088 79.632V82.35C223.43 83.88 224.312 84.294 225.356 84.33ZM233.3 85.5C231.5 85.5 231.032 84.528 231.032 82.35V74.34H232.598V82.476C232.598 83.826 232.796 84.132 233.858 84.132H234.776V85.5H233.3ZM239.319 85.5C236.673 85.5 235.611 83.988 235.611 81.198C235.611 78.516 236.835 76.788 239.319 76.788C241.893 76.788 242.919 78.498 242.919 80.586C242.919 81.018 242.865 81.522 242.793 81.81H237.213C237.267 83.448 237.915 84.204 239.319 84.204H244.269L246.051 81.144L243.711 76.914H245.439L247.239 80.37H247.599L249.435 76.914H251.091L248.751 81.09L251.289 85.5H249.561L247.581 81.846H247.221L245.205 85.5H239.319ZM237.231 80.514H241.407C241.407 78.858 240.705 78.138 239.319 78.138C238.095 78.138 237.285 78.912 237.231 80.514ZM252.723 75.618V73.962H254.631V75.618H252.723ZM252.867 85.5V76.914H254.433V85.5H252.867ZM259.728 85.734C257.514 85.734 257.064 84.6 257.064 82.35V75.258H258.63V76.914H261.924V78.246H258.63V82.242C258.63 83.826 258.864 84.33 259.764 84.33C260.448 84.33 260.808 83.97 260.88 83.034H262.284C262.194 84.636 261.546 85.734 259.728 85.734ZM264.385 88.182V86.832H265.087C265.951 86.832 266.455 86.688 266.707 85.5H265.681L263.071 76.914H264.817L266.833 84.222H267.031L268.849 76.914H270.469L268.345 84.726C267.463 87.966 266.797 88.182 265.123 88.182H264.385Z" fill="white"/>
<rect y="112" width="124" height="48" rx="24" fill="#272727"/>
<g clip-path="url(#clip1_2268_15076)">
<path d="M40.7086 136.023C33.875 136.436 28.4398 141.887 28.0266 148.705H27.9789C27.5657 141.872 22.1147 136.436 15.2969 136.023V135.975C22.1306 135.562 27.5657 130.111 27.9789 123.293H28.0266C28.4398 130.127 33.8908 135.562 40.7086 135.975V136.023Z" fill="url(#paint4_radial_2268_15076)"/>
</g>
<path d="M53.76 141.734C50.304 141.734 48.81 139.754 48.81 135.974C48.81 132.302 50.466 130.34 53.67 130.34C56.154 130.34 57.648 131.6 57.864 133.868H56.28C56.046 132.428 55.038 131.852 53.724 131.852C50.952 131.852 50.466 133.796 50.466 136.046C50.466 138.854 51.474 140.276 53.742 140.276C55.542 140.276 56.37 139.322 56.442 137.378H53.454V136.064H57.954V136.604C57.954 139.394 57.144 141.734 53.76 141.734ZM63.2779 141.734C60.6319 141.734 59.5699 139.988 59.5699 137.198C59.5699 134.516 60.7939 132.788 63.2779 132.788C65.8519 132.788 66.8779 134.498 66.8779 136.586C66.8779 137.018 66.8239 137.522 66.7519 137.81H61.1719C61.2259 139.448 61.8739 140.348 63.2779 140.348C64.0519 140.348 64.9339 140.222 65.2219 139.304H66.6799C66.4279 141.176 65.0599 141.734 63.2779 141.734ZM61.1899 136.514H65.3659C65.3659 134.858 64.6639 134.138 63.2779 134.138C62.0539 134.138 61.2439 134.912 61.1899 136.514ZM68.9479 141.5V132.914H70.2619V134.372H70.3519C70.7839 133.49 71.4499 132.788 72.6739 132.788C73.6819 132.788 74.6719 133.22 75.0679 134.372H75.1399C75.5899 133.472 76.3279 132.788 77.5699 132.788C79.6939 132.788 80.1979 134.156 80.2339 136.226V141.5H78.6679V136.226C78.6679 134.588 78.1999 134.138 77.3359 134.138C76.0759 134.138 75.3739 135.254 75.3739 137.486V141.5H73.8079V136.226C73.8079 134.588 73.3039 134.138 72.4399 134.138C71.1439 134.138 70.5139 135.254 70.5139 137.486V141.5H68.9479ZM82.694 131.618V129.962H84.602V131.618H82.694ZM82.838 141.5V132.914H84.404V141.5H82.838ZM87.071 141.5V132.914H88.403V134.39H88.493C89.051 133.346 89.879 132.788 91.193 132.788C92.687 132.788 94.163 133.346 94.163 135.632V141.5H92.597V136.082C92.597 134.354 91.895 134.138 91.049 134.138C89.627 134.138 88.637 135.488 88.637 137.738V141.5H87.071ZM96.6335 131.618V129.962H98.5415V131.618H96.6335ZM96.7775 141.5V132.914H98.3435V141.5H96.7775Z" fill="white"/>
<rect x="132" y="112" width="127" height="48" rx="24" fill="#272727"/>
<path d="M165.072 127.661C164.783 126.676 163.878 125.999 162.851 125.999H162.175C161.058 125.999 160.1 126.797 159.899 127.896L158.741 134.202L159.028 133.22C159.317 132.233 160.222 131.554 161.25 131.554H165.177L166.824 132.196L168.412 131.554H167.948C166.921 131.554 166.017 130.877 165.727 129.892L165.072 127.661Z" fill="url(#paint5_radial_2268_15076)"/>
<path d="M155.162 144.329C155.449 145.319 156.355 146.001 157.386 146.001H158.821C160.077 146.001 161.103 145 161.135 143.745L161.292 137.664L160.965 138.781C160.676 139.767 159.771 140.445 158.743 140.445H154.784L153.372 139.679L151.844 140.445H152.299C153.33 140.445 154.237 141.127 154.523 142.117L155.162 144.329Z" fill="url(#paint6_radial_2268_15076)"/>
<path d="M162.747 125.999H154.728C152.436 125.999 151.061 129.027 150.145 132.055C149.059 135.643 147.638 140.441 151.749 140.441H155.212C156.246 140.441 157.155 139.757 157.439 138.762C158.041 136.656 159.096 132.982 159.925 130.184C160.346 128.763 160.697 127.542 161.236 126.782C161.538 126.356 162.041 125.999 162.747 125.999Z" fill="url(#paint7_linear_2268_15076)"/>
<path d="M162.747 125.999H154.728C152.436 125.999 151.061 129.027 150.145 132.055C149.059 135.643 147.638 140.441 151.749 140.441H155.212C156.246 140.441 157.155 139.757 157.439 138.762C158.041 136.656 159.096 132.982 159.925 130.184C160.346 128.763 160.697 127.542 161.236 126.782C161.538 126.356 162.041 125.999 162.747 125.999Z" fill="url(#paint8_linear_2268_15076)"/>
<path d="M157.248 145.999H165.267C167.559 145.999 168.933 142.97 169.85 139.941C170.936 136.353 172.357 131.553 168.246 131.553H164.783C163.748 131.553 162.84 132.238 162.556 133.233C161.953 135.339 160.898 139.015 160.07 141.812C159.648 143.234 159.298 144.455 158.759 145.215C158.457 145.642 157.954 145.999 157.248 145.999Z" fill="url(#paint9_radial_2268_15076)"/>
<path d="M157.248 145.999H165.267C167.559 145.999 168.933 142.97 169.85 139.941C170.936 136.353 172.357 131.553 168.246 131.553H164.783C163.748 131.553 162.84 132.238 162.556 133.233C161.953 135.339 160.898 139.015 160.07 141.812C159.648 143.234 159.298 144.455 158.759 145.215C158.457 145.642 157.954 145.999 157.248 145.999Z" fill="url(#paint10_linear_2268_15076)"/>
<path d="M185.67 141.734C182.268 141.734 180.756 139.754 180.756 135.974C180.756 132.302 182.43 130.34 185.58 130.34C188.01 130.34 189.54 131.6 189.756 133.868H188.172C187.938 132.428 186.912 131.852 185.634 131.852C182.916 131.852 182.412 133.796 182.412 136.046C182.412 138.854 183.42 140.222 185.652 140.222C187.146 140.222 188.046 139.466 188.244 138.008H189.828C189.54 140.492 188.082 141.734 185.67 141.734ZM194.945 141.734C192.479 141.734 191.183 140.222 191.183 137.27C191.183 134.3 192.461 132.788 194.945 132.788C197.429 132.788 198.707 134.3 198.707 137.27C198.707 140.222 197.411 141.734 194.945 141.734ZM194.945 140.384C196.493 140.384 197.087 139.304 197.105 137.288C197.087 135.236 196.511 134.138 194.945 134.138C193.379 134.138 192.803 135.236 192.785 137.288C192.803 139.304 193.397 140.384 194.945 140.384ZM200.878 144.182V132.914H202.192V134.048H202.282C202.948 133.022 203.938 132.788 204.982 132.788C207.286 132.788 208.33 134.57 208.33 137.018C208.33 139.754 207.178 141.734 204.91 141.734C204.118 141.734 203.2 141.626 202.444 140.51V144.182H200.878ZM204.712 140.33C206.278 140.312 206.728 139.034 206.728 137.054C206.728 135.542 206.332 134.138 204.802 134.138C203.884 134.138 202.948 134.462 202.444 135.632V138.35C202.786 139.88 203.668 140.294 204.712 140.33ZM210.51 131.618V129.962H212.418V131.618H210.51ZM210.654 141.5V132.914H212.22V141.5H210.654ZM216.98 141.5C215.18 141.5 214.712 140.528 214.712 138.35V130.34H216.278V138.476C216.278 139.826 216.476 140.132 217.538 140.132H218.456V141.5H216.98ZM223 141.734C220.534 141.734 219.238 140.222 219.238 137.27C219.238 134.3 220.516 132.788 223 132.788C225.484 132.788 226.762 134.3 226.762 137.27C226.762 140.222 225.466 141.734 223 141.734ZM223 140.384C224.548 140.384 225.142 139.304 225.16 137.288C225.142 135.236 224.566 134.138 223 134.138C221.434 134.138 220.858 135.236 220.84 137.288C220.858 139.304 221.452 140.384 223 140.384ZM231.56 141.734C229.346 141.734 228.896 140.6 228.896 138.35V131.258H230.462V132.914H233.756V134.246H230.462V138.242C230.462 139.826 230.696 140.33 231.596 140.33C232.28 140.33 232.64 139.97 232.712 139.034H234.116C234.026 140.636 233.378 141.734 231.56 141.734Z" fill="white"/>
<defs>
<linearGradient id="paint0_linear_2268_15076" x1="214.28" y1="22" x2="214" y2="29.5" gradientUnits="userSpaceOnUse">
<stop stop-color="#4285F4"/>
<stop offset="1" stop-color="#4DA2FF"/>
</linearGradient>
<linearGradient id="paint1_linear_2268_15076" x1="207.5" y1="33.5" x2="214" y2="30" gradientUnits="userSpaceOnUse">
<stop stop-color="#2CCD5D"/>
<stop offset="1" stop-color="#4DA2FF"/>
</linearGradient>
<linearGradient id="paint2_linear_2268_15076" x1="200" y1="25" x2="202" y2="31" gradientUnits="userSpaceOnUse">
<stop stop-color="#FBBC05"/>
<stop offset="1" stop-color="#2CCD5D"/>
</linearGradient>
<linearGradient id="paint3_linear_2268_15076" x1="204.5" y1="15" x2="201" y2="20.5" gradientUnits="userSpaceOnUse">
<stop stop-color="#EA4335"/>
<stop offset="1" stop-color="#FBBC05"/>
</linearGradient>
<radialGradient id="paint4_radial_2268_15076" cx="0" cy="0" r="1" gradientUnits="userSpaceOnUse" gradientTransform="translate(17.6792 134.014) rotate(26.5651) scale(17.757 142.244)">
<stop offset="0.03" stop-color="#86669D"/>
<stop offset="0.485577" stop-color="#D75E64"/>
<stop offset="0.783654" stop-color="#D5625C"/>
</radialGradient>
<radialGradient id="paint5_radial_2268_15076" cx="0" cy="0" r="1" gradientUnits="userSpaceOnUse" gradientTransform="translate(167.003 134.256) rotate(-129.304) scale(8.65165 8.1353)">
<stop offset="0.0955758" stop-color="#00AEFF"/>
<stop offset="0.773185" stop-color="#2253CE"/>
<stop offset="1" stop-color="#0736C4"/>
</radialGradient>
<radialGradient id="paint6_radial_2268_15076" cx="0" cy="0" r="1" gradientUnits="userSpaceOnUse" gradientTransform="translate(153.558 140.409) rotate(51.84) scale(7.9956 7.75595)">
<stop stop-color="#FFB657"/>
<stop offset="0.633728" stop-color="#FF5F3D"/>
<stop offset="0.923392" stop-color="#C02B3C"/>
</radialGradient>
<linearGradient id="paint7_linear_2268_15076" x1="154.248" y1="127.749" x2="155.392" y2="140.986" gradientUnits="userSpaceOnUse">
<stop offset="0.156162" stop-color="#0D91E1"/>
<stop offset="0.487484" stop-color="#52B471"/>
<stop offset="0.652394" stop-color="#98BD42"/>
<stop offset="0.937361" stop-color="#FFC800"/>
</linearGradient>
<linearGradient id="paint8_linear_2268_15076" x1="155.248" y1="125.999" x2="155.872" y2="140.441" gradientUnits="userSpaceOnUse">
<stop stop-color="#3DCBFF"/>
<stop offset="0.246674" stop-color="#0588F7" stop-opacity="0"/>
</linearGradient>
<radialGradient id="paint9_radial_2268_15076" cx="0" cy="0" r="1" gradientUnits="userSpaceOnUse" gradientTransform="translate(168.658 130.139) rotate(109.274) scale(19.1937 22.9934)">
<stop offset="0.0661714" stop-color="#8C48FF"/>
<stop offset="0.5" stop-color="#F2598A"/>
<stop offset="0.895833" stop-color="#FFB152"/>
</radialGradient>
<linearGradient id="paint10_linear_2268_15076" x1="169.292" y1="130.672" x2="169.283" y2="134.606" gradientUnits="userSpaceOnUse">
<stop offset="0.0581535" stop-color="#F8ADFA"/>
<stop offset="0.708063" stop-color="#A86EDD" stop-opacity="0"/>
</linearGradient>
<clipPath id="clip0_2268_15076">
<rect width="22" height="22" fill="white" transform="translate(17 13)"/>
</clipPath>
<clipPath id="clip1_2268_15076">
<rect width="24" height="24" fill="white" transform="translate(16 124)"/>
</clipPath>
</defs>
</svg>
